<?xml version="1.0" encoding="UTF-8"?>
<svg id="Layer_1" xmlns="http://www.w3.org/2000/svg" version="1.1" viewBox="0 0 216 71">
  <!-- Generator: Adobe Illustrator 29.3.0, SVG Export Plug-In . SVG Version: 2.1.0 Build 146)  -->
  <defs>
    <style>
      .st0 {
        fill: #4da9c2;
      }

      .st1 {
        fill: #296579;
      }

      .st2 {
        fill: #a6cfd4;
      }
    </style>
  </defs>
  <path d="M63.9,32v-2.8c0-14.4,9.8-20.4,20.5-20.4s19.2,5.6,19.2,16.1h-10.4v-1c-.2-3.5-2.7-6.1-8.8-6.1s-9.7,3.3-9.7,10.2v5c0,7.2,3.5,10.5,9.7,10.5s9.2-2,9.6-7.4h-9.8v-7.5h19.4v22.7h-6.8l-1.9-5.2h-.5c-1.9,4-5.1,6-12,6s-18.6-6-18.6-20.4"/>
  <path d="M138.8,38.5v-7.7c0-9.1-4.7-12.5-14.6-12.5s-15,3.9-15.2,11.5h9.5v-.7c.2-2.2,1.5-3.5,5.3-3.5s5.1,1.4,5.1,4.8v2.2h-9.1c-7.8,0-12,3.7-12,9.1v1.7c0,5.7,4,9,9.9,9.1h0s0,0,0,0c6.9,0,10.1-2.1,12-6h.5l1.9,5.2h6.8v-13.1h0ZM117.4,41.9v-.7c0-2,1.3-3.2,3.7-3.2h7.6c0,3.2-.1,4.6-1.1,5.6-1.2,1-3.2,1.2-7.3,1.2-1.9-.2-2.9-1.3-2.9-3"/>
  <path d="M164.5,38.9h9.5c0,7.3-4.5,13.5-15.3,13.5s-16.4-7.1-16.4-16v-1.8c0-9,5.1-16,16.4-16s15.2,6.2,15.3,13.2h-9.5v-.9c-.2-2.2-1.7-4.2-5.8-4.2s-6.2,2.2-6.2,7.1v3.6c0,4.9,1.7,7.1,6.2,7.1s5.6-2.2,5.7-4.5c0,0,0-.9,0-.9Z"/>
  <path d="M209.3,34.6v1.8c0,9-5.4,16-16.7,16s-16.7-7.1-16.7-16v-1.8c0-9,5.4-16,16.7-16s16.7,7,16.7,16M192.7,44.3c4.3,0,6.5-1.7,6.5-7.1v-3.6c0-5.4-2.2-7.1-6.5-7.1s-6.5,1.7-6.5,7.1v3.6c0,5.4,2.2,7.1,6.5,7.1"/>
  <polygon class="st0" points="29.5 48.3 1.8 32 8.2 27.9 29.4 40.4 29.5 48.3"/>
  <polygon class="st0" points="29.5 60.6 1.8 44.3 8.2 40.1 29.4 52.6 29.5 60.6"/>
  <polygon class="st2" points="1 19 29.1 .8 34.7 4.4 13 18.7 1 19"/>
  <polygon class="st0" points="1 19 29.5 36 29.5 28.4 13 18.7 1 19"/>
  <polygon class="st1" points="29.5 36 47.9 24.9 42 21 29.5 28.4 29.5 36"/>
  <polygon class="st1" points="57.3 19.1 39.7 7.5 25.5 16.9 30.8 20 39.5 14.8 45.2 18.7 51.4 22.7 57.3 19.1"/>
  <polygon class="st1" points="29.5 48.3 57.1 32.3 50.6 28 29.4 40.4 29.5 48.3"/>
  <polygon class="st1" points="29.5 60.6 57.1 44.5 50.6 40.3 29.4 52.6 29.5 60.6"/>
  <polygon points="66.5 68.9 68.2 68.9 68.2 65.6 71.8 65.6 71.8 64.1 68.2 64.1 68.2 61.7 72.1 61.7 72.1 60.2 66.5 60.2 66.5 68.9"/>
  <path d="M78.8,65.5c.5-.2.8-.5,1.1-.9.3-.4.4-.9.4-1.5s-.1-1.1-.4-1.5-.6-.8-1.1-1-1-.4-1.7-.4h-3.4v8.6h1.8v-3.1h1.4l1.7,3.1h2l-1.8-3.4s0,0,.1,0M75.5,61.7h1.3c.4,0,.7,0,.9.2.2.1.4.3.5.5s.2.5.2.7,0,.5-.2.7-.3.3-.5.4c-.2.1-.5.2-.9.2h-1.3v-2.7h0Z"/>
  <path d="M87.7,60.6c-.6-.4-1.3-.5-2.1-.5s-1.5.2-2.1.5c-.6.4-1.1.9-1.4,1.5s-.5,1.5-.5,2.4.2,1.7.5,2.4.8,1.2,1.4,1.5c.6.4,1.3.5,2.1.5s1.5-.2,2.1-.5,1.1-.9,1.4-1.5.5-1.5.5-2.4-.2-1.7-.5-2.4-.8-1.2-1.4-1.5M87.6,66.1c-.2.4-.5.8-.8,1s-.7.3-1.2.3-.8-.1-1.2-.3c-.3-.2-.6-.5-.8-1s-.3-1-.3-1.6,0-1.1.3-1.6.5-.8.8-1,.7-.3,1.2-.3.8.1,1.2.3.6.5.8,1,.3,1,.3,1.6,0,1.1-.3,1.6"/>
  <path d="M96.7,64.2c0,.2-.1.4-.2.7,0,.3-.2.6-.2,1,0,.3-.2.7-.2,1,0-.3-.1-.6-.2-1,0-.3-.2-.7-.2-1,0-.3-.1-.5-.2-.7l-1.4-4h-2.7v8.6h1.8v-4.8c0-.3,0-.6,0-.9,0-.3,0-.7,0-1v-.4c0,.2,0,.3.1.4,0,.3.2.7.3,1,0,.3.2.6.3.9,0,.3.2.5.2.7l1.5,4.1h1.5l1.4-4.1c0-.2.1-.4.2-.7,0-.3.2-.6.3-.9,0-.3.2-.7.3-1,0-.2,0-.3.1-.5v.4c0,.3,0,.7,0,1,0,.3,0,.6,0,.9v4.8h1.8v-8.6h-2.7l-1.4,4h0Z"/>
  <polygon points="105.4 61.7 108 61.7 108 68.9 109.8 68.9 109.8 61.7 112.5 61.7 112.5 60.2 105.4 60.2 105.4 61.7"/>
  <polygon points="119.5 63.7 115.7 63.7 115.7 60.2 114 60.2 114 68.9 115.7 68.9 115.7 65.2 119.5 65.2 119.5 68.9 121.3 68.9 121.3 60.2 119.5 60.2 119.5 63.7"/>
  <polygon points="124.9 65.2 128.6 65.2 128.6 63.8 124.9 63.8 124.9 61.7 128.9 61.7 128.9 60.2 123.1 60.2 123.1 68.9 128.9 68.9 128.9 67.4 124.9 67.4 124.9 65.2"/>
  <path d="M137.7,65.6h1.9c0,.4,0,.7-.2.9-.2.3-.4.5-.7.7-.3.2-.7.2-1.1.2s-.9-.1-1.2-.3-.6-.6-.8-1c-.2-.4-.3-1-.3-1.6s0-1.1.3-1.6.5-.8.8-1,.7-.3,1.2-.3.5,0,.7,0,.4.2.5.3c.2.1.3.3.4.4s.2.4.3.6h1.8c0-.4-.2-.8-.4-1.2-.2-.4-.5-.7-.8-.9s-.7-.5-1.1-.6-.9-.2-1.4-.2c-.8,0-1.4.2-2.1.5s-1.1.9-1.4,1.5c-.4.7-.5,1.5-.5,2.4s.2,1.7.5,2.4c.3.7.8,1.2,1.4,1.5.6.4,1.3.5,2.1.5s1.4-.1,1.9-.4c.6-.3,1-.7,1.3-1.3s.5-1.2.5-2v-1.1h-3.6v1.4h0Z"/>
  <path d="M148,65.5c.5-.2.8-.5,1.1-.9.3-.4.4-.9.4-1.5s-.1-1.1-.4-1.5-.6-.8-1.1-1-1-.4-1.7-.4h-3.4v8.6h1.8v-3.1h1.4l1.7,3.1h2l-1.8-3.4s0,0,.1,0M144.7,61.7h1.3c.4,0,.7,0,.9.2.2.1.4.3.5.5s.2.5.2.7,0,.5-.2.7-.3.3-.5.4c-.2.1-.5.2-.9.2h-1.3v-2.7h0Z"/>
  <path d="M156.9,60.6c-.6-.4-1.3-.5-2.1-.5s-1.5.2-2.1.5c-.6.4-1.1.9-1.4,1.5s-.5,1.5-.5,2.4.2,1.7.5,2.4.8,1.2,1.4,1.5c.6.4,1.3.5,2.1.5s1.5-.2,2.1-.5,1.1-.9,1.4-1.5.5-1.5.5-2.4-.2-1.7-.5-2.4-.8-1.2-1.4-1.5M156.8,66.1c-.2.4-.5.8-.8,1s-.7.3-1.2.3-.8-.1-1.2-.3c-.3-.2-.6-.5-.8-1s-.3-1-.3-1.6,0-1.1.3-1.6.5-.8.8-1,.7-.3,1.2-.3.8.1,1.2.3.6.5.8,1,.3,1,.3,1.6,0,1.1-.3,1.6"/>
  <path d="M165.9,65.7c0,.3,0,.6-.2.9s-.4.5-.6.6c-.3.2-.6.2-1,.2s-.7,0-.9-.2c-.3-.2-.5-.4-.6-.6-.2-.3-.2-.6-.2-.9v-5.5h-1.8v5.6c0,.6.2,1.2.4,1.7.3.5.7.8,1.3,1.1.5.3,1.2.4,1.9.4s1.3-.1,1.9-.4,1-.6,1.3-1.1c.3-.5.5-1,.5-1.7v-5.6h-1.8v5.5h0Z"/>
  <path d="M175.2,64.4c0,.2,0,.5,0,.9,0,.3,0,.7,0,1,0,.2,0,.3,0,.5,0-.2-.2-.4-.2-.5-.2-.3-.3-.6-.4-.9-.1-.3-.3-.5-.4-.7l-2.7-4.4h-2v8.6h1.8v-4c0-.2,0-.5,0-.8,0-.3,0-.7,0-1,0-.2,0-.5,0-.7.1.3.2.5.4.7.2.3.3.7.5.9s.3.6.5.9l2.5,4h2v-8.6h-1.8v4.1Z"/>
  <path d="M184.2,60.8c-.6-.4-1.4-.5-2.2-.5h-3.1v8.6h3c.9,0,1.6-.2,2.3-.5.6-.4,1.1-.8,1.5-1.5s.5-1.4.5-2.3-.2-1.7-.5-2.3c-.3-.6-.8-1.1-1.4-1.5M184.1,66.1c-.2.4-.5.7-.9.9s-.8.3-1.4.3h-1.2v-5.6h1.2c.6,0,1,.1,1.4.3s.7.5.9.9c.2.4.3.9.3,1.6s-.1,1.2-.3,1.6"/>
  <path d="M196.2,65.7c0,.3,0,.6-.2.9s-.4.5-.6.6c-.3.2-.6.2-1,.2s-.7,0-.9-.2c-.3-.2-.5-.4-.6-.6-.2-.3-.2-.6-.2-.9v-5.5h-1.8v5.6c0,.6.2,1.2.4,1.7.3.5.7.8,1.3,1.1.5.3,1.2.4,1.9.4s1.3-.1,1.9-.4,1-.6,1.3-1.1c.3-.5.5-1,.5-1.7v-5.6h-1.8v5.5h0Z"/>
  <path d="M205.9,61.6c-.2-.4-.6-.8-1.1-1s-1-.4-1.7-.4h-3.4v8.6h1.8v-2.8h1.6c.7,0,1.2-.1,1.7-.4s.8-.6,1.1-1,.4-.9.4-1.5-.1-1.1-.4-1.5M204.3,63.9c-.1.2-.3.4-.5.5-.2.1-.5.2-.9.2h-1.3v-2.9h1.3c.4,0,.7,0,.9.2.2.1.4.3.5.5.1.2.2.5.2.8s0,.6-.2.8"/>
  <g>
    <path d="M210.6,22.1v-3.2h-1.2v-.4h2.8v.4h-1.2v3.2h-.5Z"/>
    <path d="M212.8,22.1v-3.6h.7l.8,2.5c0,.2.1.4.2.5,0-.1.1-.3.2-.6l.9-2.5h.6v3.6h-.5v-3l-1,3h-.4l-1-3v3h-.5Z"/>
  </g>
</svg>